<?xml version="1.0" standalone="no"?>
<!DOCTYPE svg PUBLIC "-//W3C//DTD SVG 20010904//EN"
 "http://www.w3.org/TR/2001/REC-SVG-20010904/DTD/svg10.dtd">
<svg version="1.0" xmlns="http://www.w3.org/2000/svg"
 width="72.000000pt" height="72.000000pt" viewBox="0 0 72.000000 72.000000"
 preserveAspectRatio="xMidYMid meet">
<metadata>
Created by potrace 1.14, written by Peter Selinger 2001-2017
</metadata>
<g transform="translate(0.000000,72.000000) scale(0.100000,-0.100000)"
fill="#000000" stroke="none">
<path d="M250 640 c0 -5 -9 -10 -20 -10 -23 0 -34 -8 -83 -57 -49 -49 -57 -60
-57 -82 0 -11 -5 -21 -11 -23 -16 -5 -17 -190 -1 -195 6 -3 12 -13 12 -24 0
-22 8 -33 57 -82 49 -49 60 -57 83 -57 11 0 20 -4 20 -10 0 -6 40 -10 100 -10
60 0 100 4 100 10 0 6 9 10 20 10 11 0 20 5 20 10 0 6 5 10 11 10 14 0 39 25
39 39 0 6 6 11 13 11 8 0 20 11 27 25 7 14 17 25 22 25 4 0 8 9 8 20 0 11 5
20 10 20 6 0 10 33 10 80 0 47 -4 80 -10 80 -5 0 -10 -9 -10 -20 0 -19 -6 -29
-37 -65 -7 -7 -13 -21 -13 -29 0 -9 -4 -16 -10 -16 -5 0 -10 -16 -10 -35 0
-19 -4 -35 -10 -35 -5 0 -10 -7 -10 -15 0 -9 -9 -15 -25 -15 -18 0 -25 5 -25
20 0 25 21 70 32 70 13 0 38 26 38 39 0 6 5 11 10 11 6 0 10 9 10 20 0 11 4
20 10 20 5 0 12 16 16 35 3 19 10 35 15 35 19 0 8 56 -16 85 -43 52 -69 75
-85 75 -5 0 -10 5 -10 10 0 6 -9 10 -20 10 -11 0 -20 5 -20 10 0 6 -40 10
-100 10 -60 0 -100 -4 -100 -10z m0 -110 c0 -5 -4 -10 -10 -10 -5 0 -10 5 -10
10 0 6 5 10 10 10 6 0 10 -4 10 -10z m143 -52 c15 -7 27 -16 27 -20 0 -5 7 -8
15 -8 9 0 15 -9 15 -25 0 -14 5 -25 10 -25 6 0 10 -13 10 -30 0 -16 -4 -30
-10 -30 -5 0 -10 -7 -10 -15 0 -19 -36 -55 -55 -55 -8 0 -15 -4 -15 -10 0 -5
-13 -10 -30 -10 -16 0 -30 5 -30 10 0 6 -9 10 -21 10 -24 0 -49 22 -49 44 0 8
-4 18 -10 21 -5 3 -10 19 -10 35 0 16 5 32 10 35 6 3 10 13 10 21 0 20 24 44
44 44 8 0 18 5 21 10 8 14 46 13 78 -2z m-213 -38 c0 -5 -4 -10 -10 -10 -5 0
-10 5 -10 10 0 6 5 10 10 10 6 0 10 -4 10 -10z"/>
<path d="M340 370 c0 -5 5 -10 10 -10 6 0 10 5 10 10 0 6 -4 10 -10 10 -5 0
-10 -4 -10 -10z"/>
</g>
</svg>
